# xmcd CD database file
#
# Track frame offsets:
#	150
#	15929
#	32188
#	57352
#	83975
#	99372
#	116917
#	137809
#	160603
#	182131
#	208528
#	236155
#	255354
#	271826
#	291946
#	313166
#	328530
#	346240
#
# Disc length: 4775 seconds
#
# Revision: 3
# Processed by: cddbd v1.5.2PL0 Copyright (c) Steve Scherf et al.
# Submitted via: CDex 1.70beta2
#
DISCID=fd12a512
DTITLE=AC/DC - Warning! High Voltage Greatest Hits!  CD2
DYEAR=2008
DGENRE=Hard Rock
TTITLE0=Highway To Hell
TTITLE1=T.N.T.
TTITLE2=Whole Lotta Rosie
TTITLE3=The Jack - High Voltage
TTITLE4=Girls Got Rhythm
TTITLE5=Dirty Deeds (Done Dirt Cheap)
TTITLE6=If You Want Blood (You've Got It)
TTITLE7=It's A Long Way To The Top (If You Wanna Rock 'n' Roll)
TTITLE8=Sin City
TTITLE9=Live Wire
TTITLE10=Let There Be Rock
TTITLE11=High Voltage
TTITLE12=Rock 'n Roll Damnation
TTITLE13=Touch Too Much
TTITLE14=Jailbreak
TTITLE15=Shot Down In Flames
TTITLE16=Kicked In The Teeth
TTITLE17=Big Balls
EXTD=YEAR: 2008
EXTT0=
EXTT1=
EXTT2=
EXTT3=
EXTT4=
EXTT5=
EXTT6=
EXTT7=
EXTT8=
EXTT9=
EXTT10=
EXTT11=
EXTT12=
EXTT13=
EXTT14=
EXTT15=
EXTT16=
EXTT17=
PLAYORDER=
